# xmcd CD database file
#
# Track frame offsets:
#	150
#	15319
#	34013
#	52760
#	66915
#	88042
#	111413
#	134929
#	156288
#	169251
#	188521
#	209672
#	225625
#	241523
#	262758
#	280952
#	297303
#
# Disc length: 4298 seconds
#
# Revision: 0
# Processed by: cddbd v1.5.1PL0 Copyright (c) Steve Scherf et al.
# Submitted via: CDex 1.51
#
DISCID=ee10c811
DTITLE=Nougaro - Live in Toulouse
DYEAR=1900
DGENRE=Blues
TTITLE0=Petit Taureau
TTITLE1=Le coq et la pendule
TTITLE2=Comme l'hirondelle
TTITLE3=Les hauts de corbières
TTITLE4=Beaucoup de vent
TTITLE5=C'est une garonne
TTITLE6=Un été
TTITLE7=L'enfant phare
TTITLE8=La planéte blue
TTITLE9=Bras dessus bras dessous
TTITLE10=Le mont blanc dans la neige
TTITLE11=Les pas
TTITLE12=Tu verras
TTITLE13=Si cigales m'étaient comptées
TTITLE14=Je suis saoul
TTITLE15=Rimes
TTITLE16=Toulouse
EXTD=
EXTT0=
EXTT1=
EXTT2=
EXTT3=
EXTT4=
EXTT5=
EXTT6=
EXTT7=
EXTT8=
EXTT9=
EXTT10=
EXTT11=
EXTT12=
EXTT13=
EXTT14=
EXTT15=
EXTT16=
PLAYORDER=
